<svg viewBox="0 0 512 512" xmlns="http://www.w3.org/2000/svg"><path d="m128 512h-128v-278.511719l64-121.84375 64 121.84375zm0 0" fill="#ffde91"/><path d="m128 512h-64v-400.355469l64 121.84375zm0 0" fill="#fad17f"/><path d="m128 233.488281c0 17.675781-14.328125 32-32 32s-32-14.324219-32-32c0 17.675781-14.328125 32-32 32s-32-14.324219-32-32v278.511719h128zm0 0" fill="#d72878"/><path d="m128 233.488281c0 17.675781-14.328125 32-32 32s-32-14.324219-32-32v278.511719h64zm0 0" fill="#be1964"/><path d="m64 111.644531-32 60.921875h64zm0 0" fill="#d72878"/><path d="m64 111.644531v60.921875h32zm0 0" fill="#be1964"/><path d="m384 512h-128v-390.15625l64-121.84375 64 121.84375zm0 0" fill="#ffde91"/><path d="m384 512h-64v-512l64 121.84375zm0 0" fill="#fad17f"/><path d="m384 121.84375c0 17.671875-14.328125 32-32 32s-32-14.328125-32-32c0 17.671875-14.328125 32-32 32s-32-14.328125-32-32v390.15625h128zm0 0" fill="#19cffc"/><path d="m384 121.84375c0 17.671875-14.328125 32-32 32s-32-14.328125-32-32v390.15625h64zm0 0" fill="#4ab8f7"/><path d="m320 0-32 60.921875h64zm0 0" fill="#19cffc"/><path d="m320 0v60.921875h32zm0 0" fill="#4ab8f7"/><path d="m256 512h-128v-213.628906l64-121.84375 64 121.84375zm0 0" fill="#ffde91"/><path d="m256 512h-64v-335.472656l64 121.84375zm0 0" fill="#fad17f"/><path d="m256 298.371094c0 17.671875-14.328125 32-32 32s-32-14.328125-32-32c0 17.671875-14.328125 32-32 32s-32-14.328125-32-32v213.628906h128zm0 0" fill="#ffe733"/><path d="m256 298.371094c0 17.671875-14.328125 32-32 32s-32-14.328125-32-32v213.628906h64zm0 0" fill="#f1ca3f"/><path d="m192 176.527344-32 60.921875h64zm0 0" fill="#ffe733"/><path d="m192 176.527344v60.921875h32zm0 0" fill="#f1ca3f"/><path d="m512 512h-128v-253.996094l64-121.84375 64 121.84375zm0 0" fill="#ffde91"/><path d="m512 512h-64v-375.839844l64 121.84375zm0 0" fill="#fad17f"/><path d="m512 258.003906c0 17.671875-14.328125 32-32 32s-32-14.328125-32-32c0 17.671875-14.328125 32-32 32s-32-14.328125-32-32v253.996094h128zm0 0" fill="#bc6829"/><path d="m512 258.003906c0 17.671875-14.328125 32-32 32s-32-14.328125-32-32v253.996094h64zm0 0" fill="#9e5015"/><path d="m448 136.160156-32 60.921875h64zm0 0" fill="#bc6829"/><path d="m448 136.160156v60.921875h32zm0 0" fill="#9e5015"/></svg>